<svg xmlns="http://www.w3.org/2000/svg" version="1.1" xmlns:xlink="http://www.w3.org/1999/xlink" viewBox="0 0 11.509835899639096 8.962198802280056"><g transform="matrix(0.8400852420357754,0,0,0.8400852420357754,1.6368902371963046,6.596516331326468)"><g transform="matrix(1,0,0,1,0,0)" clip-path="url(#SvgjsClipPath34329)"><g clip-path="url(#SvgjsClipPath34327261dbfb5-c7ce-4aac-813f-13da02ba8c25)"><path d=" M 3.5305056035062425 -3.178452443251593 L 4.9018327313731245 -4.5494923911088065 L 6.27287267923034 -3.1781652632419246 L 4.901545551363458 -1.8071253153847104 Z" fill="#bfe4ff" transform="matrix(1,0,0,1,0,0)" fill-rule="nonzero"></path></g><g clip-path="url(#SvgjsClipPath34327261dbfb5-c7ce-4aac-813f-13da02ba8c25)"><path d=" M 4.192144753160997 -5.2260858465644855 L 2.14446765899472 -3.1784087523982087 L 4.153726796422418 -1.1701100638889752 L 3.2336167325334433 -0.25 L 3.2153682030826176 -0.2672880805323601 L 1.2243575951057453 -2.2582986885092344 L 1.1686515578348051 -2.314965174698638 C 0.7095569748087825 -2.7727791591667086 0.559086644249347 -3.1608005222263595 0.7172405661564984 -3.4790292638775915 C 0.8002586453351139 -3.6401479367254312 0.9096607239970451 -3.7862337984401764 1.0409118516790272 -3.911231277186606 L 3.2720346892720222 -6.146195910453461 Z" fill="#525252" transform="matrix(1,0,0,1,0,0)" fill-rule="evenodd"></path></g><g clip-path="url(#SvgjsClipPath34327261dbfb5-c7ce-4aac-813f-13da02ba8c25)"><path d=" M 5.611688254651503 -5.2260858465644855 L 7.65936534881778 -3.1784087523982087 L 5.651066660308547 -1.1701100638889752 L 6.571176724197521 -0.25 L 6.589425253648346 -0.2672880805323601 L 8.579475412706755 -2.2582986885092344 L 8.635181449977694 -2.314965174698638 C 9.094276033003718 -2.7727791591667086 9.244746363563156 -3.1608005222263595 9.086592441656002 -3.4790292638775915 C 9.004735670591261 -3.6398653605386753 8.896644975475406 -3.785933867451993 8.76676295180733 -3.9112312771866087 L 6.531798318540478 -6.146195910453461 Z" fill="#80caff" transform="matrix(1,0,0,1,0,0)" fill-rule="evenodd"></path></g></g><g><path d=" M 0.033 0.5534999999999998 Q 0.033 0.45599999999999974 0.06975 0.36224999999999974 Q 0.1065 0.26849999999999974 0.177 0.19199999999999973 Q 0.2475 0.11549999999999971 0.34875 0.06974999999999976 Q 0.45 0.0239999999999998 0.5775 0.0239999999999998 Q 0.7305 0.0239999999999998 0.8445 0.08774999999999977 Q 0.9585 0.15149999999999975 1.014 0.25649999999999973 L 0.7905 0.41549999999999976 Q 0.771 0.36299999999999977 0.7342500000000001 0.3344999999999997 Q 0.6975 0.3059999999999997 0.65475 0.29474999999999973 Q 0.612 0.28349999999999975 0.5715 0.28349999999999975 Q 0.5085000000000001 0.28349999999999975 0.46275 0.3082499999999997 Q 0.417 0.33299999999999974 0.38775 0.3734999999999997 Q 0.3585 0.4139999999999997 0.34425 0.4634999999999997 Q 0.33 0.5129999999999998 0.33 0.5624999999999998 Q 0.33 0.6179999999999997 0.34650000000000003 0.6689999999999998 Q 0.363 0.7199999999999998 0.3945 0.7597499999999997 Q 0.426 0.7994999999999998 0.47175 0.8219999999999997 Q 0.5175 0.8444999999999998 0.5745 0.8444999999999998 Q 0.615 0.8444999999999998 0.657 0.8317499999999998 Q 0.6990000000000001 0.8189999999999997 0.7335 0.7904999999999998 Q 0.768 0.7619999999999998 0.786 0.7139999999999997 L 1.0245 0.8564999999999997 Q 0.993 0.9344999999999998 0.9195 0.9899999999999998 Q 0.846 1.0454999999999997 0.753 1.0747499999999997 Q 0.66 1.1039999999999996 0.5685 1.1039999999999996 Q 0.45 1.1039999999999996 0.35175 1.0567499999999999 Q 0.2535 1.0094999999999998 0.18225 0.9307499999999997 Q 0.111 0.8519999999999998 0.07200000000000001 0.7537499999999997 Q 0.033 0.6554999999999997 0.033 0.5534999999999998 M 1.4894611816406251 1.1099999999999997 Q 1.384461181640625 1.1099999999999997 1.303461181640625 1.0769999999999997 Q 1.222461181640625 1.0439999999999998 1.167711181640625 0.9862499999999997 Q 1.112961181640625 0.9284999999999998 1.085211181640625 0.8549999999999998 Q 1.057461181640625 0.7814999999999998 1.057461181640625 0.7004999999999997 Q 1.057461181640625 0.6194999999999997 1.085211181640625 0.5452499999999998 Q 1.112961181640625 0.47099999999999975 1.167711181640625 0.4139999999999997 Q 1.222461181640625 0.35699999999999976 1.303461181640625 0.32399999999999973 Q 1.384461181640625 0.2909999999999997 1.4894611816406251 0.2909999999999997 Q 1.5959611816406252 0.2909999999999997 1.676211181640625 0.32399999999999973 Q 1.756461181640625 0.35699999999999976 1.811211181640625 0.4139999999999997 Q 1.865961181640625 0.47099999999999975 1.893711181640625 0.5452499999999998 Q 1.921461181640625 0.6194999999999997 1.921461181640625 0.7004999999999997 Q 1.921461181640625 0.7814999999999998 1.893711181640625 0.8549999999999998 Q 1.865961181640625 0.9284999999999998 1.811211181640625 0.9862499999999997 Q 1.756461181640625 1.0439999999999998 1.676211181640625 1.0769999999999997 Q 1.5959611816406252 1.1099999999999997 1.4894611816406251 1.1099999999999997 M 1.349961181640625 0.7004999999999997 Q 1.349961181640625 0.7529999999999997 1.367961181640625 0.7912499999999998 Q 1.385961181640625 0.8294999999999997 1.417461181640625 0.8497499999999998 Q 1.448961181640625 0.8699999999999998 1.4894611816406251 0.8699999999999998 Q 1.529961181640625 0.8699999999999998 1.561461181640625 0.8497499999999998 Q 1.592961181640625 0.8294999999999997 1.6109611816406249 0.7912499999999998 Q 1.628961181640625 0.7529999999999997 1.628961181640625 0.7004999999999997 Q 1.628961181640625 0.6479999999999997 1.6109611816406249 0.6097499999999998 Q 1.592961181640625 0.5714999999999998 1.561461181640625 0.5512499999999997 Q 1.529961181640625 0.5309999999999997 1.4894611816406251 0.5309999999999997 Q 1.448961181640625 0.5309999999999997 1.417461181640625 0.5512499999999997 Q 1.385961181640625 0.5714999999999998 1.367961181640625 0.6097499999999998 Q 1.349961181640625 0.6479999999999997 1.349961181640625 0.7004999999999997 M 1.979981689453125 0.6989999999999997 Q 1.979981689453125 0.5819999999999997 2.024231689453125 0.4897499999999997 Q 2.068481689453125 0.39749999999999974 2.146481689453125 0.3442499999999997 Q 2.224481689453125 0.2909999999999997 2.324981689453125 0.2909999999999997 Q 2.4014816894531252 0.2909999999999997 2.465981689453125 0.3262499999999997 Q 2.530481689453125 0.3614999999999997 2.563481689453125 0.4229999999999997 L 2.563481689453125 -2.220446049250313e-16 L 2.848481689453125 -2.220446049250313e-16 L 2.848481689453125 0.7799999999999998 Q 2.848481689453125 0.8204999999999998 2.860481689453125 0.8362499999999997 Q 2.872481689453125 0.8519999999999998 2.902481689453125 0.8549999999999998 L 2.902481689453125 1.0949999999999998 Q 2.828981689453125 1.1099999999999997 2.782481689453125 1.1099999999999997 Q 2.710481689453125 1.1099999999999997 2.668481689453125 1.0829999999999997 Q 2.626481689453125 1.0559999999999998 2.614481689453125 1.0004999999999997 L 2.608481689453125 0.9719999999999998 Q 2.567981689453125 1.0439999999999998 2.498981689453125 1.0769999999999997 Q 2.429981689453125 1.1099999999999997 2.351981689453125 1.1099999999999997 Q 2.270981689453125 1.1099999999999997 2.202731689453125 1.0799999999999998 Q 2.134481689453125 1.0499999999999998 2.084231689453125 0.9952499999999997 Q 2.033981689453125 0.9404999999999998 2.006981689453125 0.8647499999999997 Q 1.979981689453125 0.7889999999999997 1.979981689453125 0.6989999999999997 M 2.564981689453125 0.7889999999999997 L 2.564981689453125 0.6479999999999997 Q 2.551481689453125 0.6134999999999997 2.528231689453125 0.5872499999999997 Q 2.504981689453125 0.5609999999999997 2.476481689453125 0.5459999999999997 Q 2.447981689453125 0.5309999999999997 2.417981689453125 0.5309999999999997 Q 2.386481689453125 0.5309999999999997 2.360231689453125 0.5444999999999998 Q 2.333981689453125 0.5579999999999997 2.314481689453125 0.5819999999999997 Q 2.294981689453125 0.6059999999999998 2.2844816894531252 0.6374999999999997 Q 2.273981689453125 0.6689999999999998 2.273981689453125 0.7049999999999997 Q 2.273981689453125 0.7424999999999997 2.285231689453125 0.7724999999999997 Q 2.296481689453125 0.8024999999999998 2.317481689453125 0.8242499999999997 Q 2.338481689453125 0.8459999999999998 2.366981689453125 0.8579999999999998 Q 2.395481689453125 0.8699999999999998 2.429981689453125 0.8699999999999998 Q 2.450981689453125 0.8699999999999998 2.468981689453125 0.8647499999999997 Q 2.486981689453125 0.8594999999999997 2.503481689453125 0.8497499999999998 Q 2.5199816894531253 0.8399999999999997 2.535731689453125 0.8242499999999997 Q 2.551481689453125 0.8084999999999998 2.564981689453125 0.7889999999999997 M 3.40794873046875 1.1099999999999997 Q 3.30444873046875 1.1099999999999997 3.22344873046875 1.0777499999999998 Q 3.14244873046875 1.0454999999999997 3.08769873046875 0.9899999999999998 Q 3.03294873046875 0.9344999999999998 3.00444873046875 0.8624999999999997 Q 2.97594873046875 0.7904999999999998 2.97594873046875 0.7109999999999997 Q 2.97594873046875 0.5969999999999998 3.02544873046875 0.5017499999999997 Q 3.07494873046875 0.40649999999999975 3.17094873046875 0.3487499999999998 Q 3.26694873046875 0.2909999999999997 3.40794873046875 0.2909999999999997 Q 3.54894873046875 0.2909999999999997 3.64494873046875 0.34799999999999975 Q 3.74094873046875 0.4049999999999997 3.79044873046875 0.4979999999999998 Q 3.83994873046875 0.5909999999999997 3.83994873046875 0.7004999999999997 Q 3.83994873046875 0.7229999999999998 3.83769873046875 0.7462499999999997 Q 3.83544873046875 0.7694999999999997 3.83244873046875 0.7874999999999998 L 3.27894873046875 0.7874999999999998 Q 3.2819487304687502 0.8294999999999997 3.30219873046875 0.8557499999999998 Q 3.32244873046875 0.8819999999999998 3.35319873046875 0.8939999999999997 Q 3.38394873046875 0.9059999999999997 3.41694873046875 0.9059999999999997 Q 3.46344873046875 0.9059999999999997 3.50469873046875 0.8849999999999998 Q 3.54594873046875 0.8639999999999998 3.55944873046875 0.8264999999999998 L 3.80094873046875 0.8954999999999997 Q 3.76944873046875 0.9584999999999997 3.71319873046875 1.0064999999999997 Q 3.6569487304687502 1.0544999999999998 3.58044873046875 1.0822499999999997 Q 3.5039487304687498 1.1099999999999997 3.40794873046875 1.1099999999999997 M 3.27294873046875 0.6164999999999997 L 3.53394873046875 0.6164999999999997 Q 3.52944873046875 0.5774999999999998 3.51219873046875 0.5504999999999998 Q 3.49494873046875 0.5234999999999997 3.46719873046875 0.5084999999999997 Q 3.43944873046875 0.4934999999999997 3.40344873046875 0.4934999999999997 Q 3.36744873046875 0.4934999999999997 3.3396987304687498 0.5084999999999997 Q 3.31194873046875 0.5234999999999997 3.29469873046875 0.5504999999999998 Q 3.27744873046875 0.5774999999999998 3.27294873046875 0.6164999999999997 M 4.28992529296875 1.0949999999999998 L 4.28992529296875 0.029999999999999805 L 4.7489252929687495 0.029999999999999805 Q 4.82692529296875 0.029999999999999805 4.89292529296875 0.061499999999999666 Q 4.95892529296875 0.09299999999999975 5.00692529296875 0.14624999999999977 Q 5.0549252929687505 0.19949999999999968 5.08117529296875 0.26549999999999974 Q 5.10742529296875 0.3314999999999997 5.10742529296875 0.3989999999999997 Q 5.10742529296875 0.4934999999999997 5.06317529296875 0.5774999999999998 Q 5.01892529296875 0.6614999999999998 4.94017529296875 0.7147499999999998 Q 4.86142529296875 0.7679999999999998 4.75642529296875 0.7679999999999998 L 4.58242529296875 0.7679999999999998 L 4.58242529296875 1.0949999999999998 L 4.28992529296875 1.0949999999999998 M 4.58242529296875 0.5129999999999998 L 4.73692529296875 0.5129999999999998 Q 4.75492529296875 0.5129999999999998 4.77142529296875 0.5024999999999997 Q 4.78792529296875 0.49199999999999977 4.79917529296875 0.4664999999999997 Q 4.81042529296875 0.4409999999999997 4.81042529296875 0.3989999999999997 Q 4.81042529296875 0.35399999999999976 4.79767529296875 0.3292499999999997 Q 4.78492529296875 0.30449999999999977 4.76617529296875 0.29474999999999973 Q 4.74742529296875 0.2849999999999997 4.72942529296875 0.2849999999999997 L 4.58242529296875 0.2849999999999997 L 4.58242529296875 0.5129999999999998 M 5.14941064453125 0.8564999999999997 Q 5.14941064453125 0.7769999999999997 5.19291064453125 0.7162499999999997 Q 5.23641064453125 0.6554999999999997 5.31366064453125 0.6209999999999998 Q 5.39091064453125 0.5864999999999997 5.48991064453125 0.5864999999999997 Q 5.53641064453125 0.5864999999999997 5.5776606445312495 0.5939999999999998 Q 5.61891064453125 0.6014999999999997 5.6489106445312505 0.6164999999999997 L 5.6489106445312505 0.5924999999999997 Q 5.6489106445312505 0.5369999999999997 5.61666064453125 0.5099999999999998 Q 5.58441064453125 0.48299999999999976 5.51241064453125 0.48299999999999976 Q 5.44641064453125 0.48299999999999976 5.38866064453125 0.5047499999999997 Q 5.33091064453125 0.5264999999999997 5.26791064453125 0.5684999999999998 L 5.18541064453125 0.39149999999999974 Q 5.26491064453125 0.3404999999999997 5.35266064453125 0.31574999999999975 Q 5.44041064453125 0.2909999999999997 5.54091064453125 0.2909999999999997 Q 5.72841064453125 0.2909999999999997 5.83116064453125 0.3757499999999997 Q 5.93391064453125 0.4604999999999997 5.93391064453125 0.6269999999999998 L 5.93391064453125 0.7799999999999998 Q 5.93391064453125 0.8204999999999998 5.94591064453125 0.8362499999999997 Q 5.95791064453125 0.8519999999999998 5.98791064453125 0.8549999999999998 L 5.98791064453125 1.0949999999999998 Q 5.95341064453125 1.1024999999999998 5.92266064453125 1.1062499999999997 Q 5.89191064453125 1.1099999999999997 5.86791064453125 1.1099999999999997 Q 5.79141064453125 1.1099999999999997 5.75166064453125 1.0822499999999997 Q 5.71191064453125 1.0544999999999998 5.69991064453125 1.0004999999999997 L 5.69391064453125 0.9719999999999998 Q 5.64141064453125 1.0394999999999996 5.57241064453125 1.0747499999999997 Q 5.50341064453125 1.1099999999999997 5.42541064453125 1.1099999999999997 Q 5.34741064453125 1.1099999999999997 5.28441064453125 1.0769999999999997 Q 5.22141064453125 1.0439999999999998 5.18541064453125 0.9862499999999997 Q 5.14941064453125 0.9284999999999998 5.14941064453125 0.8564999999999997 M 5.61141064453125 0.8759999999999998 Q 5.62791064453125 0.8639999999999998 5.63841064453125 0.8497499999999998 Q 5.6489106445312505 0.8354999999999997 5.6489106445312505 0.8204999999999998 L 5.6489106445312505 0.7619999999999998 Q 5.62491064453125 0.7529999999999997 5.59416064453125 0.7469999999999997 Q 5.56341064453125 0.7409999999999998 5.53941064453125 0.7409999999999998 Q 5.48841064453125 0.7409999999999998 5.45316064453125 0.7664999999999997 Q 5.41791064453125 0.7919999999999998 5.41791064453125 0.8309999999999997 Q 5.41791064453125 0.8519999999999998 5.42991064453125 0.8692499999999997 Q 5.44191064453125 0.8864999999999997 5.46291064453125 0.8962499999999998 Q 5.4839106445312495 0.9059999999999997 5.51091064453125 0.9059999999999997 Q 5.53641064453125 0.9059999999999997 5.56416064453125 0.8977499999999997 Q 5.59191064453125 0.8894999999999997 5.61141064453125 0.8759999999999998 M 6.4079091796875 1.1099999999999997 Q 6.3044091796875 1.1099999999999997 6.2046591796875 1.0762499999999997 Q 6.1049091796875 1.0424999999999998 6.0359091796875 0.9779999999999998 L 6.1334091796875 0.8024999999999998 Q 6.2069091796875 0.8504999999999998 6.2751591796875 0.8774999999999997 Q 6.3434091796875 0.9044999999999997 6.3989091796875 0.9044999999999997 Q 6.4304091796875 0.9044999999999997 6.4454091796875 0.8962499999999998 Q 6.4604091796875 0.8879999999999997 6.4604091796875 0.8684999999999997 Q 6.4604091796875 0.8549999999999998 6.4499091796875 0.8459999999999998 Q 6.4394091796875 0.8369999999999997 6.4161591796875 0.8279999999999997 Q 6.3929091796875 0.8189999999999997 6.3569091796875 0.8084999999999998 Q 6.2639091796875 0.7754999999999997 6.2016591796875 0.7469999999999997 Q 6.1394091796875 0.7184999999999997 6.1086591796875 0.6772499999999997 Q 6.0779091796875 0.6359999999999997 6.0779091796875 0.5669999999999997 Q 6.0779091796875 0.48599999999999977 6.1184091796875 0.42374999999999974 Q 6.1589091796875 0.3614999999999997 6.2346591796875 0.3254999999999998 Q 6.3104091796875 0.28949999999999976 6.4169091796875 0.28949999999999976 Q 6.4964091796875 0.28949999999999976 6.5766591796875 0.3142499999999997 Q 6.6569091796875 0.33899999999999975 6.7319091796875 0.40349999999999975 L 6.6239091796875 0.5774999999999998 Q 6.5489091796875 0.5309999999999997 6.4971591796875 0.5114999999999997 Q 6.4454091796875 0.49199999999999977 6.4049091796875 0.49199999999999977 Q 6.3854091796875 0.49199999999999977 6.3711591796875 0.4964999999999997 Q 6.3569091796875 0.5009999999999998 6.3494091796875 0.5099999999999998 Q 6.3419091796875 0.5189999999999997 6.3419091796875 0.5339999999999997 Q 6.3419091796875 0.5489999999999997 6.3524091796875 0.5587499999999997 Q 6.3629091796875 0.5684999999999998 6.3854091796875 0.5767499999999998 Q 6.4079091796875 0.5849999999999997 6.4424091796875 0.5954999999999997 Q 6.5444091796875 0.6254999999999997 6.6089091796875 0.6562499999999998 Q 6.6734091796875 0.6869999999999997 6.7041591796875 0.7304999999999997 Q 6.7349091796875005 0.7739999999999998 6.7349091796875005 0.8444999999999998 Q 6.7349091796875005 0.9689999999999998 6.6471591796875 1.0394999999999996 Q 6.5594091796875 1.1099999999999997 6.4079091796875 1.1099999999999997 M 7.1593740234375 1.1099999999999997 Q 7.0558740234375 1.1099999999999997 6.9561240234375 1.0762499999999997 Q 6.8563740234375 1.0424999999999998 6.7873740234375 0.9779999999999998 L 6.8848740234375 0.8024999999999998 Q 6.9583740234375 0.8504999999999998 7.0266240234375 0.8774999999999997 Q 7.0948740234375 0.9044999999999997 7.1503740234375 0.9044999999999997 Q 7.1818740234375 0.9044999999999997 7.1968740234375 0.8962499999999998 Q 7.2118740234375 0.8879999999999997 7.2118740234375 0.8684999999999997 Q 7.2118740234375 0.8549999999999998 7.2013740234375 0.8459999999999998 Q 7.1908740234375 0.8369999999999997 7.1676240234375 0.8279999999999997 Q 7.1443740234375 0.8189999999999997 7.1083740234375 0.8084999999999998 Q 7.0153740234375 0.7754999999999997 6.9531240234375 0.7469999999999997 Q 6.8908740234375 0.7184999999999997 6.8601240234375 0.6772499999999997 Q 6.8293740234375 0.6359999999999997 6.8293740234375 0.5669999999999997 Q 6.8293740234375 0.48599999999999977 6.8698740234375 0.42374999999999974 Q 6.9103740234375 0.3614999999999997 6.9861240234375 0.3254999999999998 Q 7.0618740234375 0.28949999999999976 7.1683740234375 0.28949999999999976 Q 7.2478740234375 0.28949999999999976 7.3281240234375 0.3142499999999997 Q 7.4083740234375 0.33899999999999975 7.4833740234375 0.40349999999999975 L 7.3753740234375 0.5774999999999998 Q 7.3003740234375 0.5309999999999997 7.2486240234375 0.5114999999999997 Q 7.1968740234375 0.49199999999999977 7.1563740234375 0.49199999999999977 Q 7.1368740234375 0.49199999999999977 7.1226240234375 0.4964999999999997 Q 7.1083740234375 0.5009999999999998 7.1008740234375 0.5099999999999998 Q 7.0933740234375 0.5189999999999997 7.0933740234375 0.5339999999999997 Q 7.0933740234375 0.5489999999999997 7.1038740234375 0.5587499999999997 Q 7.1143740234375 0.5684999999999998 7.1368740234375 0.5767499999999998 Q 7.1593740234375 0.5849999999999997 7.1938740234375 0.5954999999999997 Q 7.2958740234375 0.6254999999999997 7.3603740234375 0.6562499999999998 Q 7.4248740234375 0.6869999999999997 7.4556240234375 0.7304999999999997 Q 7.4863740234375005 0.7739999999999998 7.4863740234375005 0.8444999999999998 Q 7.4863740234375005 0.9689999999999998 7.3986240234375 1.0394999999999996 Q 7.3108740234375 1.1099999999999997 7.1593740234375 1.1099999999999997 M 7.5943388671875 1.0949999999999998 L 7.5943388671875 0.3059999999999997 L 7.8793388671875 0.3059999999999997 L 7.8793388671875 1.0949999999999998 L 7.5943388671875 1.0949999999999998 M 7.5943388671875 0.23999999999999977 L 7.5943388671875 -2.220446049250313e-16 L 7.8793388671875 -2.220446049250313e-16 L 7.8793388671875 0.23999999999999977 L 7.5943388671875 0.23999999999999977 M 8.41185498046875 1.1099999999999997 Q 8.30685498046875 1.1099999999999997 8.22585498046875 1.0769999999999997 Q 8.14485498046875 1.0439999999999998 8.09010498046875 0.9862499999999997 Q 8.03535498046875 0.9284999999999998 8.00760498046875 0.8549999999999998 Q 7.97985498046875 0.7814999999999998 7.97985498046875 0.7004999999999997 Q 7.97985498046875 0.6194999999999997 8.00760498046875 0.5452499999999998 Q 8.03535498046875 0.47099999999999975 8.09010498046875 0.4139999999999997 Q 8.14485498046875 0.35699999999999976 8.22585498046875 0.32399999999999973 Q 8.30685498046875 0.2909999999999997 8.41185498046875 0.2909999999999997 Q 8.51835498046875 0.2909999999999997 8.59860498046875 0.32399999999999973 Q 8.67885498046875 0.35699999999999976 8.73360498046875 0.4139999999999997 Q 8.78835498046875 0.47099999999999975 8.81610498046875 0.5452499999999998 Q 8.84385498046875 0.6194999999999997 8.84385498046875 0.7004999999999997 Q 8.84385498046875 0.7814999999999998 8.81610498046875 0.8549999999999998 Q 8.78835498046875 0.9284999999999998 8.73360498046875 0.9862499999999997 Q 8.67885498046875 1.0439999999999998 8.59860498046875 1.0769999999999997 Q 8.51835498046875 1.1099999999999997 8.41185498046875 1.1099999999999997 M 8.27235498046875 0.7004999999999997 Q 8.27235498046875 0.7529999999999997 8.29035498046875 0.7912499999999998 Q 8.30835498046875 0.8294999999999997 8.33985498046875 0.8497499999999998 Q 8.37135498046875 0.8699999999999998 8.41185498046875 0.8699999999999998 Q 8.45235498046875 0.8699999999999998 8.48385498046875 0.8497499999999998 Q 8.51535498046875 0.8294999999999997 8.53335498046875 0.7912499999999998 Q 8.55135498046875 0.7529999999999997 8.55135498046875 0.7004999999999997 Q 8.55135498046875 0.6479999999999997 8.53335498046875 0.6097499999999998 Q 8.51535498046875 0.5714999999999998 8.48385498046875 0.5512499999999997 Q 8.45235498046875 0.5309999999999997 8.41185498046875 0.5309999999999997 Q 8.37135498046875 0.5309999999999997 8.33985498046875 0.5512499999999997 Q 8.30835498046875 0.5714999999999998 8.29035498046875 0.6097499999999998 Q 8.27235498046875 0.6479999999999997 8.27235498046875 0.7004999999999997 M 9.73787548828125 1.0949999999999998 L 9.45287548828125 1.0949999999999998 L 9.45287548828125 0.6509999999999998 Q 9.45287548828125 0.5924999999999997 9.42662548828125 0.5662499999999997 Q 9.40037548828125 0.5399999999999997 9.36587548828125 0.5399999999999997 Q 9.34187548828125 0.5399999999999997 9.31487548828125 0.5542499999999997 Q 9.28787548828125 0.5684999999999998 9.26537548828125 0.5939999999999998 Q 9.24287548828125 0.6194999999999997 9.22937548828125 0.6524999999999997 L 9.22937548828125 1.0949999999999998 L 8.94437548828125 1.0949999999999998 L 8.94437548828125 0.3059999999999997 L 9.20087548828125 0.3059999999999997 L 9.20087548828125 0.4229999999999997 Q 9.22937548828125 0.3794999999999997 9.27287548828125 0.35024999999999973 Q 9.31637548828125 0.32099999999999973 9.37337548828125 0.3059999999999997 Q 9.43037548828125 0.2909999999999997 9.49787548828125 0.2909999999999997 Q 9.57887548828125 0.2909999999999997 9.62687548828125 0.3194999999999998 Q 9.67487548828125 0.34799999999999975 9.69887548828125 0.3929999999999997 Q 9.72287548828125 0.4379999999999997 9.73037548828125 0.4867499999999998 Q 9.73787548828125 0.5354999999999998 9.73787548828125 0.5759999999999997 L 9.73787548828125 1.0949999999999998" fill="#525252" fill-rule="nonzero"></path></g><g></g></g><defs><clipPath id="SvgjsClipPath34329"><path d=" M 0.6567322842932359 -6.146195910453461 h 8.490368439226028 v 5.896195910453461 h -8.490368439226028 Z"></path></clipPath><clipPath id="SvgjsClipPath34327261dbfb5-c7ce-4aac-813f-13da02ba8c25"><path d=" M 0.6567322842932359 -6.146195910453461 L 9.147100723519264 -6.146195910453461 L 9.147100723519264 -0.25 L 0.6567322842932359 -0.25 Z"></path></clipPath></defs></svg>